# xmcd
#
# Track frame offsets:
#	150
#	12577
#	24545
#	36462
#	48453
#	61577
#	73814
#	86835
#	100491
#	114370
#	126758
#	140220
#	153764
#	166626
#	179792
#	192853
#	207635
#	220917
#	235657
#	249699
#
# Disc length: 3503 seconds
#
# Revision: 2
# Processed by: cddbd v1.5.2PL0 Copyright (c) Steve Scherf et al.
# Submitted via: audiograbber 1.83.01
#
DISCID=290dad14
DTITLE=T-Bone Walker - Midnight Blues
DYEAR=2004
DGENRE=Blues
TTITLE0=Midnight Blues
TTITLE1=Lonesome Woman Blues
TTITLE2=That's Better For Me
TTITLE3=Bobby Sox Baby
TTITLE4=It's a Lowdown Dirty Deal
TTITLE5=T-Bone Jumps Again
TTITLE6=I Wish You Were Mine
TTITLE7=Stormy Monday
TTITLE8=The Plain Old Down Home Blues
TTITLE9=I'm In An Awful Mood
TTITLE10=T-Bone Shuffle
TTITLE11=Misfortune Blues
TTITLE12=Long Skirt Baby Blues
TTITLE13=You're My Best Poker Hand
TTITLE14=Mean Old World
TTITLE15=I Got A Break Baby
TTITLE16=I'm Still In Love With You
TTITLE17=T-Bone Blues
TTITLE18=Description Blues
TTITLE19=That Old Feeling Is Gone
EXTD=
EXTT0=
EXTT1=
EXTT2=
EXTT3=
EXTT4=
EXTT5=
EXTT6=
EXTT7=
EXTT8=
EXTT9=
EXTT10=
EXTT11=
EXTT12=
EXTT13=
EXTT14=
EXTT15=
EXTT16=
EXTT17=
EXTT18=
EXTT19=
PLAYORDER=
